<svg width="458" height="522" viewBox="0 0 458 522" fill="none" xmlns="http://www.w3.org/2000/svg">
<mask id="mask0" mask-type="alpha" maskUnits="userSpaceOnUse" x="0" y="0" width="458" height="522">
<path d="M208.449 0.528092C201.368 0.963927 194.325 2.03602 187.441 3.78254C181.156 5.37636 174.931 7.23422 168.665 8.91712C110.302 24.0409 65.7323 57.7211 34.0829 109.057C5.49507 155.415 -4.21455 205.657 1.62204 259.245C6.69167 305.784 27.6321 345.261 57.4229 380.427C83.9167 411.702 115.14 437.591 149.373 460.073C184.883 483.392 222.697 501.636 263.247 514.272C273.259 517.39 283.545 519.28 293.818 521.236C296.014 521.653 298.404 522.054 299.918 519.811C301.163 517.972 300.673 516.073 299.845 514.323C298.957 512.45 297.71 510.767 296.383 509.167C289.572 500.962 284.598 491.708 280.41 481.967C275.477 470.485 277.247 457.824 293.519 453.599C335.956 442.576 371.119 419.181 399.882 386.468C441.273 339.388 460.616 284.002 457.338 221.576C453.863 155.428 426.996 99.698 376.854 56.1241C333.076 18.0856 282.202 0 225.456 0C219.842 0 214.177 0.178151 208.449 0.528092Z" fill="white"/>
</mask>
<g mask="url(#mask0)">
<path d="M473.602 -15.9061L473.593 217.806L408.037 217.312L407.369 217.309C391.867 217.309 376.649 221.502 363.321 229.455L347.322 239.008L330.65 220.232C329.307 218.728 327.805 217.36 326.172 216.164C320.001 211.637 312.44 209.788 304.881 210.953C297.32 212.117 290.662 216.154 286.137 222.323L275.679 236.575L261.568 185.07C259.093 176.019 251.875 169.084 242.716 166.975C236.09 165.46 229.267 166.599 223.5 170.21C217.734 173.818 213.724 179.455 212.199 186.078L199.473 241.407L191.638 206.267C189.381 196.172 181.826 188.054 171.926 185.086C164.59 182.881 156.847 183.664 150.113 187.29C143.376 190.914 138.453 196.939 136.25 204.266L126.913 235.337L120.717 216.603C116.825 204.854 105.9 196.965 93.523 196.965H76.376C67.5893 196.965 60.4638 204.084 60.4638 212.871C60.4638 221.658 67.5893 228.777 76.376 228.777H91.2221L109.368 283.629C112.678 293.609 123.502 299.055 133.501 295.746C139.404 293.793 143.996 289.066 145.782 283.117L163.225 225.078L180.642 303.178C181.753 308.153 184.732 312.4 189.041 315.136C192.137 317.105 195.657 318.117 199.244 318.117C200.638 318.117 202.047 317.964 203.441 317.653C210.564 316.062 216.235 310.441 217.89 303.302L237.551 217.837L248.47 257.679C250.261 264.236 254.507 269.701 260.413 273.07C266.32 276.433 273.184 277.295 279.743 275.507C285.262 273.999 290.166 270.624 293.552 266.011L309.471 244.312L323.524 260.132C333.667 271.537 350.527 274.139 363.636 266.32L379.634 256.769C388.144 251.689 397.72 249.055 407.792 249.125L473.593 249.619L473.602 537.467H-15.9141V-15.9061H473.602Z" fill="#F0F0F0"/>
</g>
</svg>
